<svg data-xychart-colors="0" xmlns="http://www.w3.org/2000/svg" viewBox="0 0 750 514" width="750" height="514" style="--bg:#ffffff;--fg:#1f2328;--line:#59636e;--accent:#3d4ed7;--muted:#59636e">
<style>
  text { font-family: -apple-system, BlinkMacSystemFont, "Segoe UI", "Noto Sans", Helvetica, Arial, sans-serif; }
  svg {
    /* Derived from --bg and --fg (overridable via --line, --accent, etc.) */
    --_text:          var(--fg);
    --_text-sec:      var(--muted, color-mix(in srgb, var(--fg) 60%, var(--bg)));
    --_text-muted:    var(--muted, color-mix(in srgb, var(--fg) 40%, var(--bg)));
    --_text-faint:    color-mix(in srgb, var(--fg) 25%, var(--bg));
    --_line:          var(--line, color-mix(in srgb, var(--fg) 50%, var(--bg)));
    --_arrow:         var(--accent, color-mix(in srgb, var(--fg) 85%, var(--bg)));
    --_node-fill:     var(--surface, color-mix(in srgb, var(--fg) 3%, var(--bg)));
    --_node-stroke:   var(--border, color-mix(in srgb, var(--fg) 20%, var(--bg)));
    --_group-fill:    var(--bg);
    --_group-hdr:     color-mix(in srgb, var(--fg) 5%, var(--bg));
    --_inner-stroke:  color-mix(in srgb, var(--fg) 12%, var(--bg));
    --_key-badge:     color-mix(in srgb, var(--fg) 10%, var(--bg));
  }
</style>
<style>
  .xychart-grid { fill: var(--_inner-stroke); stroke: none; opacity: 0.65; }
  .xychart-bar { stroke-width: 1.5; }
  .xychart-line { fill: none; stroke-width: 2.5; stroke-linecap: round; stroke-linejoin: round; }
  .xychart-line-shadow { fill: none; stroke-width: 5; stroke-linecap: round; stroke-linejoin: round; opacity: 0.12; }
  .xychart-dot { stroke: var(--bg); stroke-width: 2; }
  .xychart-label { fill: var(--_text-muted); }
  .xychart-axis-title { fill: var(--_text-sec); }
  .xychart-title { fill: var(--_text); }
  svg {
    --xychart-color-0: var(--accent, #3b82f6);
    --xychart-bar-fill-0: color-mix(in srgb, var(--bg) 75%, var(--xychart-color-0) 25%);
  }
  .xychart-bar.xychart-color-0 { stroke: var(--xychart-color-0); fill: var(--xychart-bar-fill-0); }
  path.xychart-color-0, line.xychart-color-0 { stroke: var(--xychart-color-0); }
  circle.xychart-color-0 { fill: var(--xychart-color-0); }
</style>
<circle cx="128" cy="64" r="1.5" class="xychart-grid"/>
<circle cx="146.8" cy="64" r="1.5" class="xychart-grid"/>
<circle cx="165.5" cy="64" r="1.5" class="xychart-grid"/>
<circle cx="184.3" cy="64" r="1.5" class="xychart-grid"/>
<circle cx="203" cy="64" r="1.5" class="xychart-grid"/>
<circle cx="221.8" cy="64" r="1.5" class="xychart-grid"/>
<circle cx="240.5" cy="64" r="1.5" class="xychart-grid"/>
<circle cx="259.3" cy="64" r="1.5" class="xychart-grid"/>
<circle cx="278" cy="64" r="1.5" class="xychart-grid"/>
<circle cx="296.8" cy="64" r="1.5" class="xychart-grid"/>
<circle cx="315.5" cy="64" r="1.5" class="xychart-grid"/>
<circle cx="334.3" cy="64" r="1.5" class="xychart-grid"/>
<circle cx="353" cy="64" r="1.5" class="xychart-grid"/>
<circle cx="371.8" cy="64" r="1.5" class="xychart-grid"/>
<circle cx="390.5" cy="64" r="1.5" class="xychart-grid"/>
<circle cx="409.3" cy="64" r="1.5" class="xychart-grid"/>
<circle cx="428" cy="64" r="1.5" class="xychart-grid"/>
<circle cx="446.8" cy="64" r="1.5" class="xychart-grid"/>
<circle cx="465.5" cy="64" r="1.5" class="xychart-grid"/>
<circle cx="484.3" cy="64" r="1.5" class="xychart-grid"/>
<circle cx="503" cy="64" r="1.5" class="xychart-grid"/>
<circle cx="521.8" cy="64" r="1.5" class="xychart-grid"/>
<circle cx="540.5" cy="64" r="1.5" class="xychart-grid"/>
<circle cx="559.3" cy="64" r="1.5" class="xychart-grid"/>
<circle cx="578" cy="64" r="1.5" class="xychart-grid"/>
<circle cx="596.8" cy="64" r="1.5" class="xychart-grid"/>
<circle cx="615.5" cy="64" r="1.5" class="xychart-grid"/>
<circle cx="634.3" cy="64" r="1.5" class="xychart-grid"/>
<circle cx="653" cy="64" r="1.5" class="xychart-grid"/>
<circle cx="671.8" cy="64" r="1.5" class="xychart-grid"/>
<circle cx="690.5" cy="64" r="1.5" class="xychart-grid"/>
<circle cx="709.3" cy="64" r="1.5" class="xychart-grid"/>
<circle cx="728" cy="64" r="1.5" class="xychart-grid"/>
<circle cx="128" cy="82.9" r="1.5" class="xychart-grid"/>
<circle cx="146.8" cy="82.9" r="1.5" class="xychart-grid"/>
<circle cx="165.5" cy="82.9" r="1.5" class="xychart-grid"/>
<circle cx="184.3" cy="82.9" r="1.5" class="xychart-grid"/>
<circle cx="203" cy="82.9" r="1.5" class="xychart-grid"/>
<circle cx="221.8" cy="82.9" r="1.5" class="xychart-grid"/>
<circle cx="240.5" cy="82.9" r="1.5" class="xychart-grid"/>
<circle cx="259.3" cy="82.9" r="1.5" class="xychart-grid"/>
<circle cx="278" cy="82.9" r="1.5" class="xychart-grid"/>
<circle cx="296.8" cy="82.9" r="1.5" class="xychart-grid"/>
<circle cx="315.5" cy="82.9" r="1.5" class="xychart-grid"/>
<circle cx="334.3" cy="82.9" r="1.5" class="xychart-grid"/>
<circle cx="353" cy="82.9" r="1.5" class="xychart-grid"/>
<circle cx="371.8" cy="82.9" r="1.5" class="xychart-grid"/>
<circle cx="390.5" cy="82.9" r="1.5" class="xychart-grid"/>
<circle cx="409.3" cy="82.9" r="1.5" class="xychart-grid"/>
<circle cx="428" cy="82.9" r="1.5" class="xychart-grid"/>
<circle cx="446.8" cy="82.9" r="1.5" class="xychart-grid"/>
<circle cx="465.5" cy="82.9" r="1.5" class="xychart-grid"/>
<circle cx="484.3" cy="82.9" r="1.5" class="xychart-grid"/>
<circle cx="503" cy="82.9" r="1.5" class="xychart-grid"/>
<circle cx="521.8" cy="82.9" r="1.5" class="xychart-grid"/>
<circle cx="540.5" cy="82.9" r="1.5" class="xychart-grid"/>
<circle cx="559.3" cy="82.9" r="1.5" class="xychart-grid"/>
<circle cx="578" cy="82.9" r="1.5" class="xychart-grid"/>
<circle cx="596.8" cy="82.9" r="1.5" class="xychart-grid"/>
<circle cx="615.5" cy="82.9" r="1.5" class="xychart-grid"/>
<circle cx="634.3" cy="82.9" r="1.5" class="xychart-grid"/>
<circle cx="653" cy="82.9" r="1.5" class="xychart-grid"/>
<circle cx="671.8" cy="82.9" r="1.5" class="xychart-grid"/>
<circle cx="690.5" cy="82.9" r="1.5" class="xychart-grid"/>
<circle cx="709.3" cy="82.9" r="1.5" class="xychart-grid"/>
<circle cx="728" cy="82.9" r="1.5" class="xychart-grid"/>
<circle cx="128" cy="101.8" r="1.5" class="xychart-grid"/>
<circle cx="146.8" cy="101.8" r="1.5" class="xychart-grid"/>
<circle cx="165.5" cy="101.8" r="1.5" class="xychart-grid"/>
<circle cx="184.3" cy="101.8" r="1.5" class="xychart-grid"/>
<circle cx="203" cy="101.8" r="1.5" class="xychart-grid"/>
<circle cx="221.8" cy="101.8" r="1.5" class="xychart-grid"/>
<circle cx="240.5" cy="101.8" r="1.5" class="xychart-grid"/>
<circle cx="259.3" cy="101.8" r="1.5" class="xychart-grid"/>
<circle cx="278" cy="101.8" r="1.5" class="xychart-grid"/>
<circle cx="296.8" cy="101.8" r="1.5" class="xychart-grid"/>
<circle cx="315.5" cy="101.8" r="1.5" class="xychart-grid"/>
<circle cx="334.3" cy="101.8" r="1.5" class="xychart-grid"/>
<circle cx="353" cy="101.8" r="1.5" class="xychart-grid"/>
<circle cx="371.8" cy="101.8" r="1.5" class="xychart-grid"/>
<circle cx="390.5" cy="101.8" r="1.5" class="xychart-grid"/>
<circle cx="409.3" cy="101.8" r="1.5" class="xychart-grid"/>
<circle cx="428" cy="101.8" r="1.5" class="xychart-grid"/>
<circle cx="446.8" cy="101.8" r="1.5" class="xychart-grid"/>
<circle cx="465.5" cy="101.8" r="1.5" class="xychart-grid"/>
<circle cx="484.3" cy="101.8" r="1.5" class="xychart-grid"/>
<circle cx="503" cy="101.8" r="1.5" class="xychart-grid"/>
<circle cx="521.8" cy="101.8" r="1.5" class="xychart-grid"/>
<circle cx="540.5" cy="101.8" r="1.5" class="xychart-grid"/>
<circle cx="559.3" cy="101.8" r="1.5" class="xychart-grid"/>
<circle cx="578" cy="101.8" r="1.5" class="xychart-grid"/>
<circle cx="596.8" cy="101.8" r="1.5" class="xychart-grid"/>
<circle cx="615.5" cy="101.8" r="1.5" class="xychart-grid"/>
<circle cx="634.3" cy="101.8" r="1.5" class="xychart-grid"/>
<circle cx="653" cy="101.8" r="1.5" class="xychart-grid"/>
<circle cx="671.8" cy="101.8" r="1.5" class="xychart-grid"/>
<circle cx="690.5" cy="101.8" r="1.5" class="xychart-grid"/>
<circle cx="709.3" cy="101.8" r="1.5" class="xychart-grid"/>
<circle cx="728" cy="101.8" r="1.5" class="xychart-grid"/>
<circle cx="128" cy="120.7" r="1.5" class="xychart-grid"/>
<circle cx="146.8" cy="120.7" r="1.5" class="xychart-grid"/>
<circle cx="165.5" cy="120.7" r="1.5" class="xychart-grid"/>
<circle cx="184.3" cy="120.7" r="1.5" class="xychart-grid"/>
<circle cx="203" cy="120.7" r="1.5" class="xychart-grid"/>
<circle cx="221.8" cy="120.7" r="1.5" class="xychart-grid"/>
<circle cx="240.5" cy="120.7" r="1.5" class="xychart-grid"/>
<circle cx="259.3" cy="120.7" r="1.5" class="xychart-grid"/>
<circle cx="278" cy="120.7" r="1.5" class="xychart-grid"/>
<circle cx="296.8" cy="120.7" r="1.5" class="xychart-grid"/>
<circle cx="315.5" cy="120.7" r="1.5" class="xychart-grid"/>
<circle cx="334.3" cy="120.7" r="1.5" class="xychart-grid"/>
<circle cx="353" cy="120.7" r="1.5" class="xychart-grid"/>
<circle cx="371.8" cy="120.7" r="1.5" class="xychart-grid"/>
<circle cx="390.5" cy="120.7" r="1.5" class="xychart-grid"/>
<circle cx="409.3" cy="120.7" r="1.5" class="xychart-grid"/>
<circle cx="428" cy="120.7" r="1.5" class="xychart-grid"/>
<circle cx="446.8" cy="120.7" r="1.5" class="xychart-grid"/>
<circle cx="465.5" cy="120.7" r="1.5" class="xychart-grid"/>
<circle cx="484.3" cy="120.7" r="1.5" class="xychart-grid"/>
<circle cx="503" cy="120.7" r="1.5" class="xychart-grid"/>
<circle cx="521.8" cy="120.7" r="1.5" class="xychart-grid"/>
<circle cx="540.5" cy="120.7" r="1.5" class="xychart-grid"/>
<circle cx="559.3" cy="120.7" r="1.5" class="xychart-grid"/>
<circle cx="578" cy="120.7" r="1.5" class="xychart-grid"/>
<circle cx="596.8" cy="120.7" r="1.5" class="xychart-grid"/>
<circle cx="615.5" cy="120.7" r="1.5" class="xychart-grid"/>
<circle cx="634.3" cy="120.7" r="1.5" class="xychart-grid"/>
<circle cx="653" cy="120.7" r="1.5" class="xychart-grid"/>
<circle cx="671.8" cy="120.7" r="1.5" class="xychart-grid"/>
<circle cx="690.5" cy="120.7" r="1.5" class="xychart-grid"/>
<circle cx="709.3" cy="120.7" r="1.5" class="xychart-grid"/>
<circle cx="728" cy="120.7" r="1.5" class="xychart-grid"/>
<circle cx="128" cy="139.6" r="1.5" class="xychart-grid"/>
<circle cx="146.8" cy="139.6" r="1.5" class="xychart-grid"/>
<circle cx="165.5" cy="139.6" r="1.5" class="xychart-grid"/>
<circle cx="184.3" cy="139.6" r="1.5" class="xychart-grid"/>
<circle cx="203" cy="139.6" r="1.5" class="xychart-grid"/>
<circle cx="221.8" cy="139.6" r="1.5" class="xychart-grid"/>
<circle cx="240.5" cy="139.6" r="1.5" class="xychart-grid"/>
<circle cx="259.3" cy="139.6" r="1.5" class="xychart-grid"/>
<circle cx="278" cy="139.6" r="1.5" class="xychart-grid"/>
<circle cx="296.8" cy="139.6" r="1.5" class="xychart-grid"/>
<circle cx="315.5" cy="139.6" r="1.5" class="xychart-grid"/>
<circle cx="334.3" cy="139.6" r="1.5" class="xychart-grid"/>
<circle cx="353" cy="139.6" r="1.5" class="xychart-grid"/>
<circle cx="371.8" cy="139.6" r="1.5" class="xychart-grid"/>
<circle cx="390.5" cy="139.6" r="1.5" class="xychart-grid"/>
<circle cx="409.3" cy="139.6" r="1.5" class="xychart-grid"/>
<circle cx="428" cy="139.6" r="1.5" class="xychart-grid"/>
<circle cx="446.8" cy="139.6" r="1.5" class="xychart-grid"/>
<circle cx="465.5" cy="139.6" r="1.5" class="xychart-grid"/>
<circle cx="484.3" cy="139.6" r="1.5" class="xychart-grid"/>
<circle cx="503" cy="139.6" r="1.5" class="xychart-grid"/>
<circle cx="521.8" cy="139.6" r="1.5" class="xychart-grid"/>
<circle cx="540.5" cy="139.6" r="1.5" class="xychart-grid"/>
<circle cx="559.3" cy="139.6" r="1.5" class="xychart-grid"/>
<circle cx="578" cy="139.6" r="1.5" class="xychart-grid"/>
<circle cx="596.8" cy="139.6" r="1.5" class="xychart-grid"/>
<circle cx="615.5" cy="139.6" r="1.5" class="xychart-grid"/>
<circle cx="634.3" cy="139.6" r="1.5" class="xychart-grid"/>
<circle cx="653" cy="139.6" r="1.5" class="xychart-grid"/>
<circle cx="671.8" cy="139.6" r="1.5" class="xychart-grid"/>
<circle cx="690.5" cy="139.6" r="1.5" class="xychart-grid"/>
<circle cx="709.3" cy="139.6" r="1.5" class="xychart-grid"/>
<circle cx="728" cy="139.6" r="1.5" class="xychart-grid"/>
<circle cx="128" cy="158.4" r="1.5" class="xychart-grid"/>
<circle cx="146.8" cy="158.4" r="1.5" class="xychart-grid"/>
<circle cx="165.5" cy="158.4" r="1.5" class="xychart-grid"/>
<circle cx="184.3" cy="158.4" r="1.5" class="xychart-grid"/>
<circle cx="203" cy="158.4" r="1.5" class="xychart-grid"/>
<circle cx="221.8" cy="158.4" r="1.5" class="xychart-grid"/>
<circle cx="240.5" cy="158.4" r="1.5" class="xychart-grid"/>
<circle cx="259.3" cy="158.4" r="1.5" class="xychart-grid"/>
<circle cx="278" cy="158.4" r="1.5" class="xychart-grid"/>
<circle cx="296.8" cy="158.4" r="1.5" class="xychart-grid"/>
<circle cx="315.5" cy="158.4" r="1.5" class="xychart-grid"/>
<circle cx="334.3" cy="158.4" r="1.5" class="xychart-grid"/>
<circle cx="353" cy="158.4" r="1.5" class="xychart-grid"/>
<circle cx="371.8" cy="158.4" r="1.5" class="xychart-grid"/>
<circle cx="390.5" cy="158.4" r="1.5" class="xychart-grid"/>
<circle cx="409.3" cy="158.4" r="1.5" class="xychart-grid"/>
<circle cx="428" cy="158.4" r="1.5" class="xychart-grid"/>
<circle cx="446.8" cy="158.4" r="1.5" class="xychart-grid"/>
<circle cx="465.5" cy="158.4" r="1.5" class="xychart-grid"/>
<circle cx="484.3" cy="158.4" r="1.5" class="xychart-grid"/>
<circle cx="503" cy="158.4" r="1.5" class="xychart-grid"/>
<circle cx="521.8" cy="158.4" r="1.5" class="xychart-grid"/>
<circle cx="540.5" cy="158.4" r="1.5" class="xychart-grid"/>
<circle cx="559.3" cy="158.4" r="1.5" class="xychart-grid"/>
<circle cx="578" cy="158.4" r="1.5" class="xychart-grid"/>
<circle cx="596.8" cy="158.4" r="1.5" class="xychart-grid"/>
<circle cx="615.5" cy="158.4" r="1.5" class="xychart-grid"/>
<circle cx="634.3" cy="158.4" r="1.5" class="xychart-grid"/>
<circle cx="653" cy="158.4" r="1.5" class="xychart-grid"/>
<circle cx="671.8" cy="158.4" r="1.5" class="xychart-grid"/>
<circle cx="690.5" cy="158.4" r="1.5" class="xychart-grid"/>
<circle cx="709.3" cy="158.4" r="1.5" class="xychart-grid"/>
<circle cx="728" cy="158.4" r="1.5" class="xychart-grid"/>
<circle cx="128" cy="177.3" r="1.5" class="xychart-grid"/>
<circle cx="146.8" cy="177.3" r="1.5" class="xychart-grid"/>
<circle cx="165.5" cy="177.3" r="1.5" class="xychart-grid"/>
<circle cx="184.3" cy="177.3" r="1.5" class="xychart-grid"/>
<circle cx="203" cy="177.3" r="1.5" class="xychart-grid"/>
<circle cx="221.8" cy="177.3" r="1.5" class="xychart-grid"/>
<circle cx="240.5" cy="177.3" r="1.5" class="xychart-grid"/>
<circle cx="259.3" cy="177.3" r="1.5" class="xychart-grid"/>
<circle cx="278" cy="177.3" r="1.5" class="xychart-grid"/>
<circle cx="296.8" cy="177.3" r="1.5" class="xychart-grid"/>
<circle cx="315.5" cy="177.3" r="1.5" class="xychart-grid"/>
<circle cx="334.3" cy="177.3" r="1.5" class="xychart-grid"/>
<circle cx="353" cy="177.3" r="1.5" class="xychart-grid"/>
<circle cx="371.8" cy="177.3" r="1.5" class="xychart-grid"/>
<circle cx="390.5" cy="177.3" r="1.5" class="xychart-grid"/>
<circle cx="409.3" cy="177.3" r="1.5" class="xychart-grid"/>
<circle cx="428" cy="177.3" r="1.5" class="xychart-grid"/>
<circle cx="446.8" cy="177.3" r="1.5" class="xychart-grid"/>
<circle cx="465.5" cy="177.3" r="1.5" class="xychart-grid"/>
<circle cx="484.3" cy="177.3" r="1.5" class="xychart-grid"/>
<circle cx="503" cy="177.3" r="1.5" class="xychart-grid"/>
<circle cx="521.8" cy="177.3" r="1.5" class="xychart-grid"/>
<circle cx="540.5" cy="177.3" r="1.5" class="xychart-grid"/>
<circle cx="559.3" cy="177.3" r="1.5" class="xychart-grid"/>
<circle cx="578" cy="177.3" r="1.5" class="xychart-grid"/>
<circle cx="596.8" cy="177.3" r="1.5" class="xychart-grid"/>
<circle cx="615.5" cy="177.3" r="1.5" class="xychart-grid"/>
<circle cx="634.3" cy="177.3" r="1.5" class="xychart-grid"/>
<circle cx="653" cy="177.3" r="1.5" class="xychart-grid"/>
<circle cx="671.8" cy="177.3" r="1.5" class="xychart-grid"/>
<circle cx="690.5" cy="177.3" r="1.5" class="xychart-grid"/>
<circle cx="709.3" cy="177.3" r="1.5" class="xychart-grid"/>
<circle cx="728" cy="177.3" r="1.5" class="xychart-grid"/>
<circle cx="128" cy="196.2" r="1.5" class="xychart-grid"/>
<circle cx="146.8" cy="196.2" r="1.5" class="xychart-grid"/>
<circle cx="165.5" cy="196.2" r="1.5" class="xychart-grid"/>
<circle cx="184.3" cy="196.2" r="1.5" class="xychart-grid"/>
<circle cx="203" cy="196.2" r="1.5" class="xychart-grid"/>
<circle cx="221.8" cy="196.2" r="1.5" class="xychart-grid"/>
<circle cx="240.5" cy="196.2" r="1.5" class="xychart-grid"/>
<circle cx="259.3" cy="196.2" r="1.5" class="xychart-grid"/>
<circle cx="278" cy="196.2" r="1.5" class="xychart-grid"/>
<circle cx="296.8" cy="196.2" r="1.5" class="xychart-grid"/>
<circle cx="315.5" cy="196.2" r="1.5" class="xychart-grid"/>
<circle cx="334.3" cy="196.2" r="1.5" class="xychart-grid"/>
<circle cx="353" cy="196.2" r="1.5" class="xychart-grid"/>
<circle cx="371.8" cy="196.2" r="1.5" class="xychart-grid"/>
<circle cx="390.5" cy="196.2" r="1.5" class="xychart-grid"/>
<circle cx="409.3" cy="196.2" r="1.5" class="xychart-grid"/>
<circle cx="428" cy="196.2" r="1.5" class="xychart-grid"/>
<circle cx="446.8" cy="196.2" r="1.5" class="xychart-grid"/>
<circle cx="465.5" cy="196.2" r="1.5" class="xychart-grid"/>
<circle cx="484.3" cy="196.2" r="1.5" class="xychart-grid"/>
<circle cx="503" cy="196.2" r="1.5" class="xychart-grid"/>
<circle cx="521.8" cy="196.2" r="1.5" class="xychart-grid"/>
<circle cx="540.5" cy="196.2" r="1.5" class="xychart-grid"/>
<circle cx="559.3" cy="196.2" r="1.5" class="xychart-grid"/>
<circle cx="578" cy="196.2" r="1.5" class="xychart-grid"/>
<circle cx="596.8" cy="196.2" r="1.5" class="xychart-grid"/>
<circle cx="615.5" cy="196.2" r="1.5" class="xychart-grid"/>
<circle cx="634.3" cy="196.2" r="1.5" class="xychart-grid"/>
<circle cx="653" cy="196.2" r="1.5" class="xychart-grid"/>
<circle cx="671.8" cy="196.2" r="1.5" class="xychart-grid"/>
<circle cx="690.5" cy="196.2" r="1.5" class="xychart-grid"/>
<circle cx="709.3" cy="196.2" r="1.5" class="xychart-grid"/>
<circle cx="728" cy="196.2" r="1.5" class="xychart-grid"/>
<circle cx="128" cy="215.1" r="1.5" class="xychart-grid"/>
<circle cx="146.8" cy="215.1" r="1.5" class="xychart-grid"/>
<circle cx="165.5" cy="215.1" r="1.5" class="xychart-grid"/>
<circle cx="184.3" cy="215.1" r="1.5" class="xychart-grid"/>
<circle cx="203" cy="215.1" r="1.5" class="xychart-grid"/>
<circle cx="221.8" cy="215.1" r="1.5" class="xychart-grid"/>
<circle cx="240.5" cy="215.1" r="1.5" class="xychart-grid"/>
<circle cx="259.3" cy="215.1" r="1.5" class="xychart-grid"/>
<circle cx="278" cy="215.1" r="1.5" class="xychart-grid"/>
<circle cx="296.8" cy="215.1" r="1.5" class="xychart-grid"/>
<circle cx="315.5" cy="215.1" r="1.5" class="xychart-grid"/>
<circle cx="334.3" cy="215.1" r="1.5" class="xychart-grid"/>
<circle cx="353" cy="215.1" r="1.5" class="xychart-grid"/>
<circle cx="371.8" cy="215.1" r="1.5" class="xychart-grid"/>
<circle cx="390.5" cy="215.1" r="1.5" class="xychart-grid"/>
<circle cx="409.3" cy="215.1" r="1.5" class="xychart-grid"/>
<circle cx="428" cy="215.1" r="1.5" class="xychart-grid"/>
<circle cx="446.8" cy="215.1" r="1.5" class="xychart-grid"/>
<circle cx="465.5" cy="215.1" r="1.5" class="xychart-grid"/>
<circle cx="484.3" cy="215.1" r="1.5" class="xychart-grid"/>
<circle cx="503" cy="215.1" r="1.5" class="xychart-grid"/>
<circle cx="521.8" cy="215.1" r="1.5" class="xychart-grid"/>
<circle cx="540.5" cy="215.1" r="1.5" class="xychart-grid"/>
<circle cx="559.3" cy="215.1" r="1.5" class="xychart-grid"/>
<circle cx="578" cy="215.1" r="1.5" class="xychart-grid"/>
<circle cx="596.8" cy="215.1" r="1.5" class="xychart-grid"/>
<circle cx="615.5" cy="215.1" r="1.5" class="xychart-grid"/>
<circle cx="634.3" cy="215.1" r="1.5" class="xychart-grid"/>
<circle cx="653" cy="215.1" r="1.5" class="xychart-grid"/>
<circle cx="671.8" cy="215.1" r="1.5" class="xychart-grid"/>
<circle cx="690.5" cy="215.1" r="1.5" class="xychart-grid"/>
<circle cx="709.3" cy="215.1" r="1.5" class="xychart-grid"/>
<circle cx="728" cy="215.1" r="1.5" class="xychart-grid"/>
<circle cx="128" cy="234" r="1.5" class="xychart-grid"/>
<circle cx="146.8" cy="234" r="1.5" class="xychart-grid"/>
<circle cx="165.5" cy="234" r="1.5" class="xychart-grid"/>
<circle cx="184.3" cy="234" r="1.5" class="xychart-grid"/>
<circle cx="203" cy="234" r="1.5" class="xychart-grid"/>
<circle cx="221.8" cy="234" r="1.5" class="xychart-grid"/>
<circle cx="240.5" cy="234" r="1.5" class="xychart-grid"/>
<circle cx="259.3" cy="234" r="1.5" class="xychart-grid"/>
<circle cx="278" cy="234" r="1.5" class="xychart-grid"/>
<circle cx="296.8" cy="234" r="1.5" class="xychart-grid"/>
<circle cx="315.5" cy="234" r="1.5" class="xychart-grid"/>
<circle cx="334.3" cy="234" r="1.5" class="xychart-grid"/>
<circle cx="353" cy="234" r="1.5" class="xychart-grid"/>
<circle cx="371.8" cy="234" r="1.5" class="xychart-grid"/>
<circle cx="390.5" cy="234" r="1.5" class="xychart-grid"/>
<circle cx="409.3" cy="234" r="1.5" class="xychart-grid"/>
<circle cx="428" cy="234" r="1.5" class="xychart-grid"/>
<circle cx="446.8" cy="234" r="1.5" class="xychart-grid"/>
<circle cx="465.5" cy="234" r="1.5" class="xychart-grid"/>
<circle cx="484.3" cy="234" r="1.5" class="xychart-grid"/>
<circle cx="503" cy="234" r="1.5" class="xychart-grid"/>
<circle cx="521.8" cy="234" r="1.5" class="xychart-grid"/>
<circle cx="540.5" cy="234" r="1.5" class="xychart-grid"/>
<circle cx="559.3" cy="234" r="1.5" class="xychart-grid"/>
<circle cx="578" cy="234" r="1.5" class="xychart-grid"/>
<circle cx="596.8" cy="234" r="1.5" class="xychart-grid"/>
<circle cx="615.5" cy="234" r="1.5" class="xychart-grid"/>
<circle cx="634.3" cy="234" r="1.5" class="xychart-grid"/>
<circle cx="653" cy="234" r="1.5" class="xychart-grid"/>
<circle cx="671.8" cy="234" r="1.5" class="xychart-grid"/>
<circle cx="690.5" cy="234" r="1.5" class="xychart-grid"/>
<circle cx="709.3" cy="234" r="1.5" class="xychart-grid"/>
<circle cx="728" cy="234" r="1.5" class="xychart-grid"/>
<circle cx="128" cy="252.9" r="1.5" class="xychart-grid"/>
<circle cx="146.8" cy="252.9" r="1.5" class="xychart-grid"/>
<circle cx="165.5" cy="252.9" r="1.5" class="xychart-grid"/>
<circle cx="184.3" cy="252.9" r="1.5" class="xychart-grid"/>
<circle cx="203" cy="252.9" r="1.5" class="xychart-grid"/>
<circle cx="221.8" cy="252.9" r="1.5" class="xychart-grid"/>
<circle cx="240.5" cy="252.9" r="1.5" class="xychart-grid"/>
<circle cx="259.3" cy="252.9" r="1.5" class="xychart-grid"/>
<circle cx="278" cy="252.9" r="1.5" class="xychart-grid"/>
<circle cx="296.8" cy="252.9" r="1.5" class="xychart-grid"/>
<circle cx="315.5" cy="252.9" r="1.5" class="xychart-grid"/>
<circle cx="334.3" cy="252.9" r="1.5" class="xychart-grid"/>
<circle cx="353" cy="252.9" r="1.5" class="xychart-grid"/>
<circle cx="371.8" cy="252.9" r="1.5" class="xychart-grid"/>
<circle cx="390.5" cy="252.9" r="1.5" class="xychart-grid"/>
<circle cx="409.3" cy="252.9" r="1.5" class="xychart-grid"/>
<circle cx="428" cy="252.9" r="1.5" class="xychart-grid"/>
<circle cx="446.8" cy="252.9" r="1.5" class="xychart-grid"/>
<circle cx="465.5" cy="252.9" r="1.5" class="xychart-grid"/>
<circle cx="484.3" cy="252.9" r="1.5" class="xychart-grid"/>
<circle cx="503" cy="252.9" r="1.5" class="xychart-grid"/>
<circle cx="521.8" cy="252.9" r="1.5" class="xychart-grid"/>
<circle cx="540.5" cy="252.9" r="1.5" class="xychart-grid"/>
<circle cx="559.3" cy="252.9" r="1.5" class="xychart-grid"/>
<circle cx="578" cy="252.9" r="1.5" class="xychart-grid"/>
<circle cx="596.8" cy="252.9" r="1.5" class="xychart-grid"/>
<circle cx="615.5" cy="252.9" r="1.5" class="xychart-grid"/>
<circle cx="634.3" cy="252.9" r="1.5" class="xychart-grid"/>
<circle cx="653" cy="252.9" r="1.5" class="xychart-grid"/>
<circle cx="671.8" cy="252.9" r="1.5" class="xychart-grid"/>
<circle cx="690.5" cy="252.9" r="1.5" class="xychart-grid"/>
<circle cx="709.3" cy="252.9" r="1.5" class="xychart-grid"/>
<circle cx="728" cy="252.9" r="1.5" class="xychart-grid"/>
<circle cx="128" cy="271.8" r="1.5" class="xychart-grid"/>
<circle cx="146.8" cy="271.8" r="1.5" class="xychart-grid"/>
<circle cx="165.5" cy="271.8" r="1.5" class="xychart-grid"/>
<circle cx="184.3" cy="271.8" r="1.5" class="xychart-grid"/>
<circle cx="203" cy="271.8" r="1.5" class="xychart-grid"/>
<circle cx="221.8" cy="271.8" r="1.5" class="xychart-grid"/>
<circle cx="240.5" cy="271.8" r="1.5" class="xychart-grid"/>
<circle cx="259.3" cy="271.8" r="1.5" class="xychart-grid"/>
<circle cx="278" cy="271.8" r="1.5" class="xychart-grid"/>
<circle cx="296.8" cy="271.8" r="1.5" class="xychart-grid"/>
<circle cx="315.5" cy="271.8" r="1.5" class="xychart-grid"/>
<circle cx="334.3" cy="271.8" r="1.5" class="xychart-grid"/>
<circle cx="353" cy="271.8" r="1.5" class="xychart-grid"/>
<circle cx="371.8" cy="271.8" r="1.5" class="xychart-grid"/>
<circle cx="390.5" cy="271.8" r="1.5" class="xychart-grid"/>
<circle cx="409.3" cy="271.8" r="1.5" class="xychart-grid"/>
<circle cx="428" cy="271.8" r="1.5" class="xychart-grid"/>
<circle cx="446.8" cy="271.8" r="1.5" class="xychart-grid"/>
<circle cx="465.5" cy="271.8" r="1.5" class="xychart-grid"/>
<circle cx="484.3" cy="271.8" r="1.5" class="xychart-grid"/>
<circle cx="503" cy="271.8" r="1.5" class="xychart-grid"/>
<circle cx="521.8" cy="271.8" r="1.5" class="xychart-grid"/>
<circle cx="540.5" cy="271.8" r="1.5" class="xychart-grid"/>
<circle cx="559.3" cy="271.8" r="1.5" class="xychart-grid"/>
<circle cx="578" cy="271.8" r="1.5" class="xychart-grid"/>
<circle cx="596.8" cy="271.8" r="1.5" class="xychart-grid"/>
<circle cx="615.5" cy="271.8" r="1.5" class="xychart-grid"/>
<circle cx="634.3" cy="271.8" r="1.5" class="xychart-grid"/>
<circle cx="653" cy="271.8" r="1.5" class="xychart-grid"/>
<circle cx="671.8" cy="271.8" r="1.5" class="xychart-grid"/>
<circle cx="690.5" cy="271.8" r="1.5" class="xychart-grid"/>
<circle cx="709.3" cy="271.8" r="1.5" class="xychart-grid"/>
<circle cx="728" cy="271.8" r="1.5" class="xychart-grid"/>
<circle cx="128" cy="290.7" r="1.5" class="xychart-grid"/>
<circle cx="146.8" cy="290.7" r="1.5" class="xychart-grid"/>
<circle cx="165.5" cy="290.7" r="1.5" class="xychart-grid"/>
<circle cx="184.3" cy="290.7" r="1.5" class="xychart-grid"/>
<circle cx="203" cy="290.7" r="1.5" class="xychart-grid"/>
<circle cx="221.8" cy="290.7" r="1.5" class="xychart-grid"/>
<circle cx="240.5" cy="290.7" r="1.5" class="xychart-grid"/>
<circle cx="259.3" cy="290.7" r="1.5" class="xychart-grid"/>
<circle cx="278" cy="290.7" r="1.5" class="xychart-grid"/>
<circle cx="296.8" cy="290.7" r="1.5" class="xychart-grid"/>
<circle cx="315.5" cy="290.7" r="1.5" class="xychart-grid"/>
<circle cx="334.3" cy="290.7" r="1.5" class="xychart-grid"/>
<circle cx="353" cy="290.7" r="1.5" class="xychart-grid"/>
<circle cx="371.8" cy="290.7" r="1.5" class="xychart-grid"/>
<circle cx="390.5" cy="290.7" r="1.5" class="xychart-grid"/>
<circle cx="409.3" cy="290.7" r="1.5" class="xychart-grid"/>
<circle cx="428" cy="290.7" r="1.5" class="xychart-grid"/>
<circle cx="446.8" cy="290.7" r="1.5" class="xychart-grid"/>
<circle cx="465.5" cy="290.7" r="1.5" class="xychart-grid"/>
<circle cx="484.3" cy="290.7" r="1.5" class="xychart-grid"/>
<circle cx="503" cy="290.7" r="1.5" class="xychart-grid"/>
<circle cx="521.8" cy="290.7" r="1.5" class="xychart-grid"/>
<circle cx="540.5" cy="290.7" r="1.5" class="xychart-grid"/>
<circle cx="559.3" cy="290.7" r="1.5" class="xychart-grid"/>
<circle cx="578" cy="290.7" r="1.5" class="xychart-grid"/>
<circle cx="596.8" cy="290.7" r="1.5" class="xychart-grid"/>
<circle cx="615.5" cy="290.7" r="1.5" class="xychart-grid"/>
<circle cx="634.3" cy="290.7" r="1.5" class="xychart-grid"/>
<circle cx="653" cy="290.7" r="1.5" class="xychart-grid"/>
<circle cx="671.8" cy="290.7" r="1.5" class="xychart-grid"/>
<circle cx="690.5" cy="290.7" r="1.5" class="xychart-grid"/>
<circle cx="709.3" cy="290.7" r="1.5" class="xychart-grid"/>
<circle cx="728" cy="290.7" r="1.5" class="xychart-grid"/>
<circle cx="128" cy="309.6" r="1.5" class="xychart-grid"/>
<circle cx="146.8" cy="309.6" r="1.5" class="xychart-grid"/>
<circle cx="165.5" cy="309.6" r="1.5" class="xychart-grid"/>
<circle cx="184.3" cy="309.6" r="1.5" class="xychart-grid"/>
<circle cx="203" cy="309.6" r="1.5" class="xychart-grid"/>
<circle cx="221.8" cy="309.6" r="1.5" class="xychart-grid"/>
<circle cx="240.5" cy="309.6" r="1.5" class="xychart-grid"/>
<circle cx="259.3" cy="309.6" r="1.5" class="xychart-grid"/>
<circle cx="278" cy="309.6" r="1.5" class="xychart-grid"/>
<circle cx="296.8" cy="309.6" r="1.5" class="xychart-grid"/>
<circle cx="315.5" cy="309.6" r="1.5" class="xychart-grid"/>
<circle cx="334.3" cy="309.6" r="1.5" class="xychart-grid"/>
<circle cx="353" cy="309.6" r="1.5" class="xychart-grid"/>
<circle cx="371.8" cy="309.6" r="1.5" class="xychart-grid"/>
<circle cx="390.5" cy="309.6" r="1.5" class="xychart-grid"/>
<circle cx="409.3" cy="309.6" r="1.5" class="xychart-grid"/>
<circle cx="428" cy="309.6" r="1.5" class="xychart-grid"/>
<circle cx="446.8" cy="309.6" r="1.5" class="xychart-grid"/>
<circle cx="465.5" cy="309.6" r="1.5" class="xychart-grid"/>
<circle cx="484.3" cy="309.6" r="1.5" class="xychart-grid"/>
<circle cx="503" cy="309.6" r="1.5" class="xychart-grid"/>
<circle cx="521.8" cy="309.6" r="1.5" class="xychart-grid"/>
<circle cx="540.5" cy="309.6" r="1.5" class="xychart-grid"/>
<circle cx="559.3" cy="309.6" r="1.5" class="xychart-grid"/>
<circle cx="578" cy="309.6" r="1.5" class="xychart-grid"/>
<circle cx="596.8" cy="309.6" r="1.5" class="xychart-grid"/>
<circle cx="615.5" cy="309.6" r="1.5" class="xychart-grid"/>
<circle cx="634.3" cy="309.6" r="1.5" class="xychart-grid"/>
<circle cx="653" cy="309.6" r="1.5" class="xychart-grid"/>
<circle cx="671.8" cy="309.6" r="1.5" class="xychart-grid"/>
<circle cx="690.5" cy="309.6" r="1.5" class="xychart-grid"/>
<circle cx="709.3" cy="309.6" r="1.5" class="xychart-grid"/>
<circle cx="728" cy="309.6" r="1.5" class="xychart-grid"/>
<circle cx="128" cy="328.4" r="1.5" class="xychart-grid"/>
<circle cx="146.8" cy="328.4" r="1.5" class="xychart-grid"/>
<circle cx="165.5" cy="328.4" r="1.5" class="xychart-grid"/>
<circle cx="184.3" cy="328.4" r="1.5" class="xychart-grid"/>
<circle cx="203" cy="328.4" r="1.5" class="xychart-grid"/>
<circle cx="221.8" cy="328.4" r="1.5" class="xychart-grid"/>
<circle cx="240.5" cy="328.4" r="1.5" class="xychart-grid"/>
<circle cx="259.3" cy="328.4" r="1.5" class="xychart-grid"/>
<circle cx="278" cy="328.4" r="1.5" class="xychart-grid"/>
<circle cx="296.8" cy="328.4" r="1.5" class="xychart-grid"/>
<circle cx="315.5" cy="328.4" r="1.5" class="xychart-grid"/>
<circle cx="334.3" cy="328.4" r="1.5" class="xychart-grid"/>
<circle cx="353" cy="328.4" r="1.5" class="xychart-grid"/>
<circle cx="371.8" cy="328.4" r="1.5" class="xychart-grid"/>
<circle cx="390.5" cy="328.4" r="1.5" class="xychart-grid"/>
<circle cx="409.3" cy="328.4" r="1.5" class="xychart-grid"/>
<circle cx="428" cy="328.4" r="1.5" class="xychart-grid"/>
<circle cx="446.8" cy="328.4" r="1.5" class="xychart-grid"/>
<circle cx="465.5" cy="328.4" r="1.5" class="xychart-grid"/>
<circle cx="484.3" cy="328.4" r="1.5" class="xychart-grid"/>
<circle cx="503" cy="328.4" r="1.5" class="xychart-grid"/>
<circle cx="521.8" cy="328.4" r="1.5" class="xychart-grid"/>
<circle cx="540.5" cy="328.4" r="1.5" class="xychart-grid"/>
<circle cx="559.3" cy="328.4" r="1.5" class="xychart-grid"/>
<circle cx="578" cy="328.4" r="1.5" class="xychart-grid"/>
<circle cx="596.8" cy="328.4" r="1.5" class="xychart-grid"/>
<circle cx="615.5" cy="328.4" r="1.5" class="xychart-grid"/>
<circle cx="634.3" cy="328.4" r="1.5" class="xychart-grid"/>
<circle cx="653" cy="328.4" r="1.5" class="xychart-grid"/>
<circle cx="671.8" cy="328.4" r="1.5" class="xychart-grid"/>
<circle cx="690.5" cy="328.4" r="1.5" class="xychart-grid"/>
<circle cx="709.3" cy="328.4" r="1.5" class="xychart-grid"/>
<circle cx="728" cy="328.4" r="1.5" class="xychart-grid"/>
<circle cx="128" cy="347.3" r="1.5" class="xychart-grid"/>
<circle cx="146.8" cy="347.3" r="1.5" class="xychart-grid"/>
<circle cx="165.5" cy="347.3" r="1.5" class="xychart-grid"/>
<circle cx="184.3" cy="347.3" r="1.5" class="xychart-grid"/>
<circle cx="203" cy="347.3" r="1.5" class="xychart-grid"/>
<circle cx="221.8" cy="347.3" r="1.5" class="xychart-grid"/>
<circle cx="240.5" cy="347.3" r="1.5" class="xychart-grid"/>
<circle cx="259.3" cy="347.3" r="1.5" class="xychart-grid"/>
<circle cx="278" cy="347.3" r="1.5" class="xychart-grid"/>
<circle cx="296.8" cy="347.3" r="1.5" class="xychart-grid"/>
<circle cx="315.5" cy="347.3" r="1.5" class="xychart-grid"/>
<circle cx="334.3" cy="347.3" r="1.5" class="xychart-grid"/>
<circle cx="353" cy="347.3" r="1.5" class="xychart-grid"/>
<circle cx="371.8" cy="347.3" r="1.5" class="xychart-grid"/>
<circle cx="390.5" cy="347.3" r="1.5" class="xychart-grid"/>
<circle cx="409.3" cy="347.3" r="1.5" class="xychart-grid"/>
<circle cx="428" cy="347.3" r="1.5" class="xychart-grid"/>
<circle cx="446.8" cy="347.3" r="1.5" class="xychart-grid"/>
<circle cx="465.5" cy="347.3" r="1.5" class="xychart-grid"/>
<circle cx="484.3" cy="347.3" r="1.5" class="xychart-grid"/>
<circle cx="503" cy="347.3" r="1.5" class="xychart-grid"/>
<circle cx="521.8" cy="347.3" r="1.5" class="xychart-grid"/>
<circle cx="540.5" cy="347.3" r="1.5" class="xychart-grid"/>
<circle cx="559.3" cy="347.3" r="1.5" class="xychart-grid"/>
<circle cx="578" cy="347.3" r="1.5" class="xychart-grid"/>
<circle cx="596.8" cy="347.3" r="1.5" class="xychart-grid"/>
<circle cx="615.5" cy="347.3" r="1.5" class="xychart-grid"/>
<circle cx="634.3" cy="347.3" r="1.5" class="xychart-grid"/>
<circle cx="653" cy="347.3" r="1.5" class="xychart-grid"/>
<circle cx="671.8" cy="347.3" r="1.5" class="xychart-grid"/>
<circle cx="690.5" cy="347.3" r="1.5" class="xychart-grid"/>
<circle cx="709.3" cy="347.3" r="1.5" class="xychart-grid"/>
<circle cx="728" cy="347.3" r="1.5" class="xychart-grid"/>
<circle cx="128" cy="366.2" r="1.5" class="xychart-grid"/>
<circle cx="146.8" cy="366.2" r="1.5" class="xychart-grid"/>
<circle cx="165.5" cy="366.2" r="1.5" class="xychart-grid"/>
<circle cx="184.3" cy="366.2" r="1.5" class="xychart-grid"/>
<circle cx="203" cy="366.2" r="1.5" class="xychart-grid"/>
<circle cx="221.8" cy="366.2" r="1.5" class="xychart-grid"/>
<circle cx="240.5" cy="366.2" r="1.5" class="xychart-grid"/>
<circle cx="259.3" cy="366.2" r="1.5" class="xychart-grid"/>
<circle cx="278" cy="366.2" r="1.5" class="xychart-grid"/>
<circle cx="296.8" cy="366.2" r="1.5" class="xychart-grid"/>
<circle cx="315.5" cy="366.2" r="1.5" class="xychart-grid"/>
<circle cx="334.3" cy="366.2" r="1.5" class="xychart-grid"/>
<circle cx="353" cy="366.2" r="1.5" class="xychart-grid"/>
<circle cx="371.8" cy="366.2" r="1.5" class="xychart-grid"/>
<circle cx="390.5" cy="366.2" r="1.5" class="xychart-grid"/>
<circle cx="409.3" cy="366.2" r="1.5" class="xychart-grid"/>
<circle cx="428" cy="366.2" r="1.5" class="xychart-grid"/>
<circle cx="446.8" cy="366.2" r="1.5" class="xychart-grid"/>
<circle cx="465.5" cy="366.2" r="1.5" class="xychart-grid"/>
<circle cx="484.3" cy="366.2" r="1.5" class="xychart-grid"/>
<circle cx="503" cy="366.2" r="1.5" class="xychart-grid"/>
<circle cx="521.8" cy="366.2" r="1.5" class="xychart-grid"/>
<circle cx="540.5" cy="366.2" r="1.5" class="xychart-grid"/>
<circle cx="559.3" cy="366.2" r="1.5" class="xychart-grid"/>
<circle cx="578" cy="366.2" r="1.5" class="xychart-grid"/>
<circle cx="596.8" cy="366.2" r="1.5" class="xychart-grid"/>
<circle cx="615.5" cy="366.2" r="1.5" class="xychart-grid"/>
<circle cx="634.3" cy="366.2" r="1.5" class="xychart-grid"/>
<circle cx="653" cy="366.2" r="1.5" class="xychart-grid"/>
<circle cx="671.8" cy="366.2" r="1.5" class="xychart-grid"/>
<circle cx="690.5" cy="366.2" r="1.5" class="xychart-grid"/>
<circle cx="709.3" cy="366.2" r="1.5" class="xychart-grid"/>
<circle cx="728" cy="366.2" r="1.5" class="xychart-grid"/>
<circle cx="128" cy="385.1" r="1.5" class="xychart-grid"/>
<circle cx="146.8" cy="385.1" r="1.5" class="xychart-grid"/>
<circle cx="165.5" cy="385.1" r="1.5" class="xychart-grid"/>
<circle cx="184.3" cy="385.1" r="1.5" class="xychart-grid"/>
<circle cx="203" cy="385.1" r="1.5" class="xychart-grid"/>
<circle cx="221.8" cy="385.1" r="1.5" class="xychart-grid"/>
<circle cx="240.5" cy="385.1" r="1.5" class="xychart-grid"/>
<circle cx="259.3" cy="385.1" r="1.5" class="xychart-grid"/>
<circle cx="278" cy="385.1" r="1.5" class="xychart-grid"/>
<circle cx="296.8" cy="385.1" r="1.5" class="xychart-grid"/>
<circle cx="315.5" cy="385.1" r="1.5" class="xychart-grid"/>
<circle cx="334.3" cy="385.1" r="1.5" class="xychart-grid"/>
<circle cx="353" cy="385.1" r="1.5" class="xychart-grid"/>
<circle cx="371.8" cy="385.1" r="1.5" class="xychart-grid"/>
<circle cx="390.5" cy="385.1" r="1.5" class="xychart-grid"/>
<circle cx="409.3" cy="385.1" r="1.5" class="xychart-grid"/>
<circle cx="428" cy="385.1" r="1.5" class="xychart-grid"/>
<circle cx="446.8" cy="385.1" r="1.5" class="xychart-grid"/>
<circle cx="465.5" cy="385.1" r="1.5" class="xychart-grid"/>
<circle cx="484.3" cy="385.1" r="1.5" class="xychart-grid"/>
<circle cx="503" cy="385.1" r="1.5" class="xychart-grid"/>
<circle cx="521.8" cy="385.1" r="1.5" class="xychart-grid"/>
<circle cx="540.5" cy="385.1" r="1.5" class="xychart-grid"/>
<circle cx="559.3" cy="385.1" r="1.5" class="xychart-grid"/>
<circle cx="578" cy="385.1" r="1.5" class="xychart-grid"/>
<circle cx="596.8" cy="385.1" r="1.5" class="xychart-grid"/>
<circle cx="615.5" cy="385.1" r="1.5" class="xychart-grid"/>
<circle cx="634.3" cy="385.1" r="1.5" class="xychart-grid"/>
<circle cx="653" cy="385.1" r="1.5" class="xychart-grid"/>
<circle cx="671.8" cy="385.1" r="1.5" class="xychart-grid"/>
<circle cx="690.5" cy="385.1" r="1.5" class="xychart-grid"/>
<circle cx="709.3" cy="385.1" r="1.5" class="xychart-grid"/>
<circle cx="728" cy="385.1" r="1.5" class="xychart-grid"/>
<circle cx="128" cy="404" r="1.5" class="xychart-grid"/>
<circle cx="146.8" cy="404" r="1.5" class="xychart-grid"/>
<circle cx="165.5" cy="404" r="1.5" class="xychart-grid"/>
<circle cx="184.3" cy="404" r="1.5" class="xychart-grid"/>
<circle cx="203" cy="404" r="1.5" class="xychart-grid"/>
<circle cx="221.8" cy="404" r="1.5" class="xychart-grid"/>
<circle cx="240.5" cy="404" r="1.5" class="xychart-grid"/>
<circle cx="259.3" cy="404" r="1.5" class="xychart-grid"/>
<circle cx="278" cy="404" r="1.5" class="xychart-grid"/>
<circle cx="296.8" cy="404" r="1.5" class="xychart-grid"/>
<circle cx="315.5" cy="404" r="1.5" class="xychart-grid"/>
<circle cx="334.3" cy="404" r="1.5" class="xychart-grid"/>
<circle cx="353" cy="404" r="1.5" class="xychart-grid"/>
<circle cx="371.8" cy="404" r="1.5" class="xychart-grid"/>
<circle cx="390.5" cy="404" r="1.5" class="xychart-grid"/>
<circle cx="409.3" cy="404" r="1.5" class="xychart-grid"/>
<circle cx="428" cy="404" r="1.5" class="xychart-grid"/>
<circle cx="446.8" cy="404" r="1.5" class="xychart-grid"/>
<circle cx="465.5" cy="404" r="1.5" class="xychart-grid"/>
<circle cx="484.3" cy="404" r="1.5" class="xychart-grid"/>
<circle cx="503" cy="404" r="1.5" class="xychart-grid"/>
<circle cx="521.8" cy="404" r="1.5" class="xychart-grid"/>
<circle cx="540.5" cy="404" r="1.5" class="xychart-grid"/>
<circle cx="559.3" cy="404" r="1.5" class="xychart-grid"/>
<circle cx="578" cy="404" r="1.5" class="xychart-grid"/>
<circle cx="596.8" cy="404" r="1.5" class="xychart-grid"/>
<circle cx="615.5" cy="404" r="1.5" class="xychart-grid"/>
<circle cx="634.3" cy="404" r="1.5" class="xychart-grid"/>
<circle cx="653" cy="404" r="1.5" class="xychart-grid"/>
<circle cx="671.8" cy="404" r="1.5" class="xychart-grid"/>
<circle cx="690.5" cy="404" r="1.5" class="xychart-grid"/>
<circle cx="709.3" cy="404" r="1.5" class="xychart-grid"/>
<circle cx="728" cy="404" r="1.5" class="xychart-grid"/>
<path d="M183,163.8 Q183,155.8 191,155.8 L215,155.8 Q223,155.8 223,163.8 L223,396 Q223,404 215,404 L191,404 Q183,404 183,396 Z" class="xychart-bar xychart-color-0" data-value="21.9" data-label="Sentence (15 words)"/>
<path d="M333,147.9 Q333,139.9 341,139.9 L365,139.9 Q373,139.9 373,147.9 L373,396 Q373,404 365,404 L341,404 Q333,404 333,396 Z" class="xychart-bar xychart-color-0" data-value="23.3" data-label="Paragraph (60 words)"/>
<path d="M483,164.9 Q483,156.9 491,156.9 L515,156.9 Q523,156.9 523,164.9 L523,396 Q523,404 515,404 L491,404 Q483,404 483,396 Z" class="xychart-bar xychart-color-0" data-value="21.8" data-label="Page (407 words)"/>
<path d="M633,167.2 Q633,159.2 641,159.2 L665,159.2 Q673,159.2 673,167.2 L673,396 Q673,404 665,404 L641,404 Q633,404 633,396 Z" class="xychart-bar xychart-color-0" data-value="21.6" data-label="Long article (751 words)"/>
<text x="203" y="422" text-anchor="middle" font-size="14" font-weight="400" dy="0.35em" class="xychart-label">Sentence (15 words)</text>
<text x="353" y="422" text-anchor="middle" font-size="14" font-weight="400" dy="0.35em" class="xychart-label">Paragraph (60 words)</text>
<text x="503" y="422" text-anchor="middle" font-size="14" font-weight="400" dy="0.35em" class="xychart-label">Page (407 words)</text>
<text x="653" y="422" text-anchor="middle" font-size="14" font-weight="400" dy="0.35em" class="xychart-label">Long article (751 words)</text>
<text x="110" y="404" text-anchor="end" font-size="14" font-weight="400" dy="0.35em" class="xychart-label">0</text>
<text x="110" y="347.3333333333333" text-anchor="end" font-size="14" font-weight="400" dy="0.35em" class="xychart-label">5</text>
<text x="110" y="290.6666666666667" text-anchor="end" font-size="14" font-weight="400" dy="0.35em" class="xychart-label">10</text>
<text x="110" y="234" text-anchor="end" font-size="14" font-weight="400" dy="0.35em" class="xychart-label">15</text>
<text x="110" y="177.33333333333334" text-anchor="end" font-size="14" font-weight="400" dy="0.35em" class="xychart-label">20</text>
<text x="110" y="120.66666666666663" text-anchor="end" font-size="14" font-weight="400" dy="0.35em" class="xychart-label">25</text>
<text x="110" y="64" text-anchor="end" font-size="14" font-weight="400" dy="0.35em" class="xychart-label">30</text>
<text x="428" y="492" text-anchor="middle" font-size="15" font-weight="500" dy="0.35em" class="xychart-axis-title">Text length · warm median of 5 runs · voice af_heart at 1×</text>
<text x="26" y="234" text-anchor="middle" transform="rotate(-90,26,234)" font-size="15" font-weight="500" dy="0.35em" class="xychart-axis-title">Times faster than real time</text>
<text x="375" y="40" text-anchor="middle" font-size="18" font-weight="600" dy="0.35em" class="xychart-title">Kokoro-82M on M1 Max: seconds of speech per second of work (busy machine)</text>
<text x="203" y="141.8" text-anchor="middle" font-size="14" font-weight="600" dy="0.35em" class="xychart-value" style="fill:var(--accent)">21.9×</text>
<text x="353" y="125.9" text-anchor="middle" font-size="14" font-weight="600" dy="0.35em" class="xychart-value" style="fill:var(--accent)">23.3×</text>
<text x="503" y="142.9" text-anchor="middle" font-size="14" font-weight="600" dy="0.35em" class="xychart-value" style="fill:var(--accent)">21.8×</text>
<text x="653" y="145.2" text-anchor="middle" font-size="14" font-weight="600" dy="0.35em" class="xychart-value" style="fill:var(--accent)">21.6×</text>
<text x="203" y="441" text-anchor="middle" font-size="13" font-weight="400" dy="0.35em" class="xychart-sublabel" style="fill:var(--muted)">0.38 s to first audio</text>
<text x="353" y="441" text-anchor="middle" font-size="13" font-weight="400" dy="0.35em" class="xychart-sublabel" style="fill:var(--muted)">1.2 s to first audio</text>
<text x="503" y="441" text-anchor="middle" font-size="13" font-weight="400" dy="0.35em" class="xychart-sublabel" style="fill:var(--muted)">7.7 s to first audio</text>
<text x="653" y="441" text-anchor="middle" font-size="13" font-weight="400" dy="0.35em" class="xychart-sublabel" style="fill:var(--muted)">14.8 s to first audio</text>
</svg>
